<?xml version="1.0" ?><!DOCTYPE svg  PUBLIC '-//W3C//DTD SVG 1.1//EN'  'http://www.w3.org/Graphics/SVG/1.1/DTD/svg11.dtd'><svg enable-background="new 0 0 512 512" height="512" id="Layer_1" overflow="visible" version="1.1" viewBox="0 0 512 512" width="512" xml:space="preserve" xmlns="http://www.w3.org/2000/svg" xmlns:xlink="http://www.w3.org/1999/xlink"><ellipse cx="255.79" cy="255.497" fill="#FFFFFF" rx="238.24" ry="228.45" stroke="#000000" stroke-width="30.4176"/><path d="M230.976,169.198c1.09-3.963,22.765-92.935,22.765-92.935l22.826,73.861  l76.611-67.883l-10.572,101.423l90.212,18.229l-75.712,51.371l56.978,48.97l-90.288-14.038L230.976,169.198z" stroke="#000000" stroke-width="33.5666"/><g><path d="M240.621,424.764c2.974-0.698,8.974-12.76,10.673-15.179c3.24-4.608,6.479-9.212,9.721-13.818   c2.049-2.915,4.192-9.859,7.647-11.163c-3.59-3.671,0.306-5.248,2.632-7.595c4.162-4.201,6.994-9.198,12.974-12.285   c10.564-5.454,17.75-15.316,20.021-27.015c0.697-3.598-0.55-7.825,1.708-10.445c1.413-1.647,3.918-2.813,5.578-4.419   c1.737-1.678,3.559-3.648,5.098-5.572c6.04-7.559,21.012-16.488,20.33-27.485c-0.248-3.955-3.121-6.846-4.297-10.473   c-1.391-4.287-2.059-9.805-2.393-14.269c-0.508-6.739-1.205-13.089-1.288-19.972c-0.044-3.736,0.036-8.653-1.958-11.943   c-1.339-2.209-3.945-3.317-5.646-5.268c-1.786-2.044-2.602-4.483-4.048-6.727c-6.308-9.788-12.83-20.443-16.964-31.448   c-2.525-6.72-5.297-13.542-7.576-20.338c-3.035-9.061-7.149-14.206-13.15-21.281c-4.936-5.818-9.246-11.878-14.468-17.467   c-4.715-5.044-10.972-7.64-15.953-12.415c-2.131-2.045-3.303-5.55-5.266-7.428c-2.505-2.398-3.786-3.372-5.922-6.5   c-2.121-3.103-4-3.675-7.169-5.125c-2.847-1.304-4.939-3.372-7.687-5.014c-4.688-2.801-6.066-1.766-10.25,0.316   c-3.894,1.939-8.614,2.572-12.353,4.302c-9.774,4.525-18.58,12.495-27.41,18.361c-4.299,2.856-9.266,1.188-13.999,1.966   c-3.868,0.635-6.649,4.262-9.76,7.081c-5.73,5.194-11.049,11.56-15.863,17.645c-2.951,3.732-6.935,7.293-9.064,11.588   c-2.186,4.412-1.181,10.178-1.666,15.049c-0.734,7.378-3.172,14.507-4.894,21.632c-2.502,10.34-4.012,23.533-8.938,33.007   c-2.359,4.538-7.99,8.416-11.722,11.969c-7.617,7.26-15.233,14.519-22.85,21.777l17.84,108.634c0,0,10.284,40.999,61.447,53.35   C204.896,433.147,240.616,424.764,240.621,424.764z" fill="#FFFFFF"/><polyline fill="none" points="307.747,329.245 304.183,349.624 278.828,376.313   216.857,381.397 172.838,324.509 124.144,275.875 110.703,227.076 121.428,158.378 153.958,114.669 172.949,118.814   223.821,203.04 192.59,248.562 142.141,202.551  " stroke="#000000" stroke-width="14.1981"/><polyline fill="none" points="175.965,125.572 207.307,88.658 229.332,95.777   247.508,121.19 209.851,177.591 252.311,117.756 276.996,148.462 301.196,191.172 241.125,264.849 200.427,283.192   172.626,233.338  " stroke="#000000" stroke-width="14.1981"/><polyline fill="none" points="201.288,285.661 198.223,290.255 244.665,322.21   279.137,300.659 331.592,244.655 299.148,195.495  " stroke="#000000" stroke-width="14.1981"/><polyline fill="none" points="251.202,319.939 283.333,339.495 314.143,325.93   341.012,283.185 329.98,248.321  " stroke="#000000" stroke-width="14.1981"/><path d="M108.967,225.915l-34.519,32.897l17.84,108.634   c0,0,10.284,40.999,61.447,53.35c51.164,12.354,86.887,3.968,86.887,3.968l33.125-47.104" fill="none" stroke="#000000" stroke-width="14.1981"/><polyline fill="none" points="   164.77,315.317 152.781,332.553 148.676,339.402 167.843,320.551  " stroke="#000000" stroke-linecap="round" stroke-linejoin="round" stroke-width="10.6611"/><polyline fill="none" points="   173.537,335.077 161.617,352.36 157.442,359.166 175.683,339.693  " stroke="#000000" stroke-linecap="round" stroke-linejoin="round" stroke-width="9.5108"/><polyline fill="none" points="176.624,326.087 183.914,316.345   185.309,313.87 176.438,323.116  " stroke="#000000" stroke-linejoin="round" stroke-width="8.7543"/><line fill="none" stroke="#000000" stroke-width="14.1981" x1="163.821" x2="150.308" y1="222.717" y2="227.917"/></g></svg>